# WaveFront *.obj file (generated by Autodesk ATF)

mtllib 77c35eda-9ce9-4e9d-a98a-42083d9a0b40.mtl

g Body1

v -12.149065 -50.178134 1.500000
v -8.931249 -47.956125 3.298463
v 10.016230 -34.685964 14.000000
v -24.972820 -26.214461 14.000000
v 9.959377 -34.740551 14.000000
v 14.567668 -49.530071 1.500000
v 10.215979 -34.734327 14.000000
v -35.610466 -37.381006 1.500000
v -49.530071 -14.567668 1.500000
v -45.996847 -16.243374 3.298463
v -25.030811 -26.017292 14.000000
v -35.188799 8.519867 14.000000
v -25.106511 -25.995350 14.000000
v -50.178134 12.149065 1.500000
v -37.381006 35.610466 1.500000
v -37.065598 31.712751 3.298463
v -35.047041 8.668672 14.000000
v -10.215979 34.734327 14.000000
v -35.065889 8.745202 14.000000
v -14.567668 49.530071 1.500000
v 12.149065 50.178134 1.500000
v 8.931249 47.956125 3.298463
v -10.016230 34.685964 14.000000
v 24.972820 26.214461 14.000000
v -9.959377 34.740551 14.000000
v 35.610466 37.381006 1.500000
v 49.530071 14.567668 1.500000
v 45.996847 16.243374 3.298463
v 25.030811 26.017292 14.000000
v 35.188799 -8.519867 14.000000
v 25.106511 25.995350 14.000000
v 50.178134 -12.149065 1.500000
v 35.065889 -8.745202 14.000000
v 35.047041 -8.668672 14.000000
v 37.065598 -31.712751 3.298463
v 37.381006 -35.610466 1.500000
v 14.606004 -49.660413 0.000000
v 37.479377 -35.704177 0.000000
v -12.181036 -50.310181 0.000000
v -35.704177 -37.479377 0.000000
v -49.660413 -14.606004 0.000000
v -50.310181 12.181036 0.000000
v -37.479377 35.704177 0.000000
v -14.606004 49.660413 0.000000
v 12.181036 50.310181 0.000000
v 35.704177 37.479377 0.000000
v 49.660413 14.606004 0.000000
v 50.310181 -12.181036 0.000000
v 0.000000 -0.000000 -49.134863
vt 0.010276 -1.181694 0.000000
vt 0.270733 -0.839023 0.000000
vt -1.800000 1.200000 0.000000
vt 1.800000 1.200000 0.000000
vt -0.451222 -0.000000 0.000000
vt -2.992932 0.003487 0.000000
vt -3.000000 0.000000 0.000000
vt -0.399162 1.944655 0.000000
vt -0.424829 1.944655 0.000000
vt 0.000000 0.000000 0.000000
vt -2.345384 0.279791 0.000000
vt -2.672459 -0.000000 0.000000
vt 0.000000 0.000000 0.000000
vt -2.273297 1.944655 0.000000
vt -2.672459 0.000000 0.000000
vt 0.010276 -1.181694 0.000000
vt 0.270733 -0.839023 0.000000
vt -1.800000 1.200000 0.000000
vt 1.800000 1.200000 0.000000
vt -0.451222 0.000000 0.000000
vt -2.992932 0.003487 0.000000
vt -3.000000 -0.000000 0.000000
vt -0.399162 1.944655 0.000000
vt -0.424829 1.944655 0.000000
vt 0.000000 0.000000 0.000000
vt -2.345384 0.279791 0.000000
vt -2.672459 -0.000000 0.000000
vt 0.000000 0.000000 0.000000
vt -2.273297 1.944655 0.000000
vt -2.672459 0.000000 0.000000
vt 0.010276 -1.181694 0.000000
vt 0.270733 -0.839023 0.000000
vt -1.800000 1.200000 0.000000
vt 1.800000 1.200000 0.000000
vt -0.451222 -0.000000 0.000000
vt -2.992932 0.003487 0.000000
vt -3.000000 0.000000 0.000000
vt -0.399162 1.944655 0.000000
vt -0.424829 1.944655 0.000000
vt 0.000000 0.000000 0.000000
vt -2.345384 0.279791 0.000000
vt -2.672459 -0.000000 0.000000
vt 0.000000 0.000000 0.000000
vt -2.273297 1.944655 0.000000
vt -2.672459 -0.000000 0.000000
vt 0.010276 -1.181694 0.000000
vt 0.270733 -0.839023 0.000000
vt -1.800000 1.200000 0.000000
vt 1.800000 1.200000 0.000000
vt -0.451222 0.000000 0.000000
vt -2.992932 0.003487 0.000000
vt -3.000000 0.000000 0.000000
vt -0.399162 1.944655 0.000000
vt -0.424829 1.944655 0.000000
vt 0.000000 0.000000 0.000000
vt -2.345384 0.279791 0.000000
vt -2.672459 -0.000000 0.000000
vt 0.000000 0.000000 0.000000
vt -2.273297 1.944655 0.000000
vt -2.672459 0.000000 0.000000
vt 0.010276 -1.181694 0.000000
vt 0.270733 -0.839023 0.000000
vt -1.800000 1.200000 0.000000
vt 1.800000 1.200000 0.000000
vt -0.451222 -0.000000 0.000000
vt -2.992932 0.003487 0.000000
vt -3.000000 -0.000000 0.000000
vt -0.399162 1.944655 0.000000
vt -0.424829 1.944655 0.000000
vt 0.000000 0.000000 0.000000
vt -2.345384 0.279791 0.000000
vt -2.672459 0.000000 0.000000
vt 0.000000 0.000000 0.000000
vt -2.273297 1.944655 0.000000
vt -2.672459 -0.000000 0.000000
vt -2.992932 0.003487 0.000000
vt -3.000000 -0.000000 0.000000
vt -0.451222 -0.000000 0.000000
vt 0.010276 -1.181694 0.000000
vt 0.270733 -0.839023 0.000000
vt -1.800000 1.200000 0.000000
vt 1.800000 1.200000 0.000000
vt 0.995938 -3.474055 0.000000
vt 1.021598 -3.473433 0.000000
vt 1.001623 -3.468596 0.000000
vt 3.504704 -0.866867 0.000000
vt -2.503081 -2.601729 0.000000
vt -3.504704 0.866867 0.000000
vt -3.518880 0.851987 0.000000
vt -3.506589 0.874520 0.000000
vt 3.506589 -0.874520 0.000000
vt 3.518880 -0.851987 0.000000
vt 2.503081 2.601729 0.000000
vt -1.001623 3.468596 0.000000
vt -1.021598 3.473433 0.000000
vt -0.995938 3.474055 0.000000
vt 2.510651 2.599535 0.000000
vt 2.497282 2.621446 0.000000
vt -2.510651 -2.599535 0.000000
vt -2.497282 -2.621446 0.000000
vt -2.672459 0.000000 0.000000
vt 0.000000 0.000000 0.000000
vt -2.345384 0.279791 0.000000
vt -0.424829 1.944655 0.000000
vt -0.399162 1.944655 0.000000
vt 0.000000 0.000000 0.000000
vt -2.273297 1.944655 0.000000
vt -2.672459 0.000000 0.000000
vt -0.003516 0.150573 0.000000
vt -2.675976 0.150573 0.000000
vt 0.000000 0.000000 0.000000
vt -2.679492 0.000000 0.000000
vt -0.003516 0.150573 0.000000
vt -2.675976 0.150573 0.000000
vt 0.000000 0.000000 0.000000
vt -2.679492 0.000000 0.000000
vt -0.003516 0.150573 0.000000
vt -2.675976 0.150573 0.000000
vt 0.000000 0.000000 0.000000
vt -2.679492 0.000000 0.000000
vt -0.003516 0.150573 0.000000
vt -2.675976 0.150573 0.000000
vt 0.000000 0.000000 0.000000
vt -2.679492 0.000000 0.000000
vt -0.003516 0.150573 0.000000
vt -2.675976 0.150573 0.000000
vt 0.000000 0.000000 0.000000
vt -2.679492 0.000000 0.000000
vt -0.003516 0.150573 0.000000
vt -2.675976 0.150573 0.000000
vt 0.000000 0.000000 0.000000
vt -2.679492 0.000000 0.000000
vt -0.003516 0.150573 0.000000
vt -2.675976 0.150573 0.000000
vt 0.000000 0.000000 0.000000
vt -2.679492 0.000000 0.000000
vt -0.003516 0.150573 0.000000
vt -2.675976 0.150573 0.000000
vt 0.000000 0.000000 0.000000
vt -2.679492 0.000000 0.000000
vt -0.003516 0.150573 0.000000
vt -2.675976 0.150573 0.000000
vt 0.000000 0.000000 0.000000
vt -2.679492 0.000000 0.000000
vt -0.003516 0.150573 0.000000
vt -2.675976 0.150573 0.000000
vt 0.000000 0.000000 0.000000
vt -2.679492 0.000000 0.000000
vt -0.003516 0.150573 0.000000
vt -2.675976 0.150573 0.000000
vt 0.000000 0.000000 0.000000
vt -2.679492 0.000000 0.000000
vt -0.003516 0.150573 0.000000
vt -2.675976 0.150573 0.000000
vt 0.000000 0.000000 0.000000
vt -2.679492 -0.000000 0.000000
vt -1.339746 7.010160 0.000000
vt -2.679492 0.000000 0.000000
vt 0.000000 -0.000000 0.000000
vt -1.339746 7.010160 0.000000
vt -2.679492 -0.000000 0.000000
vt 0.000000 -0.000000 0.000000
vt -1.339746 7.010160 0.000000
vt -2.679492 0.000000 0.000000
vt 0.000000 0.000000 0.000000
vt -1.339746 7.010160 0.000000
vt -2.679492 0.000000 0.000000
vt 0.000000 0.000000 0.000000
vt -1.339746 7.010160 0.000000
vt -2.679492 -0.000000 0.000000
vt 0.000000 0.000000 0.000000
vt -1.339746 7.010160 0.000000
vt -2.679492 0.000000 0.000000
vt 0.000000 0.000000 0.000000
vt -1.339746 7.010160 0.000000
vt -2.679492 -0.000000 0.000000
vt 0.000000 0.000000 0.000000
vt -1.339746 7.010160 0.000000
vt -2.679492 0.000000 0.000000
vt 0.000000 0.000000 0.000000
vt -1.339746 7.010160 0.000000
vt -2.679492 0.000000 0.000000
vt -0.000000 0.000000 0.000000
vt -1.339746 7.010160 0.000000
vt -2.679492 0.000000 0.000000
vt -0.000000 0.000000 0.000000
vt -1.339746 7.010160 0.000000
vt -2.679492 0.000000 0.000000
vt -0.000000 0.000000 0.000000
vt -1.339746 7.010160 0.000000
vt -2.679492 0.000000 0.000000
vn -0.012350 -0.051010 0.085120
vn -0.012350 -0.051010 0.085120
vn -0.012350 -0.051010 0.085120
vn -0.012350 -0.051010 0.085120
vn -0.065735 0.068464 0.031490
vn -0.065735 0.068464 0.031490
vn -0.065735 0.068464 0.031490
vn 0.001559 -0.064260 0.076604
vn 0.001559 -0.064260 0.076604
vn 0.001559 -0.064260 0.076604
vn 0.001559 -0.064260 0.076604
vn 0.001559 -0.064260 0.076604
vn -0.030780 -0.056430 0.076604
vn -0.030780 -0.056430 0.076604
vn -0.030780 -0.056430 0.076604
vn -0.050351 -0.014809 0.085120
vn -0.050351 -0.014809 0.085120
vn -0.050351 -0.014809 0.085120
vn -0.050351 -0.014809 0.085120
vn 0.026424 0.091160 0.031490
vn 0.026424 0.091160 0.031490
vn 0.026424 0.091160 0.031490
vn -0.054871 -0.033480 0.076604
vn -0.054871 -0.033480 0.076604
vn -0.054871 -0.033480 0.076604
vn -0.054871 -0.033480 0.076604
vn -0.054871 -0.033480 0.076604
vn -0.064260 -0.001559 0.076604
vn -0.064260 -0.001559 0.076604
vn -0.064260 -0.001559 0.076604
vn -0.038001 0.036201 0.085120
vn -0.038001 0.036201 0.085120
vn -0.038001 0.036201 0.085120
vn -0.038001 0.036201 0.085120
vn 0.092159 0.022697 0.031490
vn 0.092159 0.022697 0.031490
vn 0.092159 0.022697 0.031490
vn -0.056430 0.030780 0.076604
vn -0.056430 0.030780 0.076604
vn -0.056430 0.030780 0.076604
vn -0.056430 0.030780 0.076604
vn -0.056430 0.030780 0.076604
vn -0.033480 0.054871 0.076604
vn -0.033480 0.054871 0.076604
vn -0.033480 0.054871 0.076604
vn 0.012350 0.051010 0.085120
vn 0.012350 0.051010 0.085120
vn 0.012350 0.051010 0.085120
vn 0.012350 0.051010 0.085120
vn 0.065735 -0.068464 0.031490
vn 0.065735 -0.068464 0.031490
vn 0.065735 -0.068464 0.031490
vn -0.001559 0.064260 0.076604
vn -0.001559 0.064260 0.076604
vn -0.001559 0.064260 0.076604
vn -0.001559 0.064260 0.076604
vn -0.001559 0.064260 0.076604
vn 0.030780 0.056430 0.076604
vn 0.030780 0.056430 0.076604
vn 0.030780 0.056430 0.076604
vn 0.050351 0.014809 0.085120
vn 0.050351 0.014809 0.085120
vn 0.050351 0.014809 0.085120
vn 0.050351 0.014809 0.085120
vn -0.026424 -0.091160 0.031490
vn -0.026424 -0.091160 0.031490
vn -0.026424 -0.091160 0.031490
vn 0.054871 0.033480 0.076604
vn 0.054871 0.033480 0.076604
vn 0.054871 0.033480 0.076604
vn 0.054871 0.033480 0.076604
vn 0.054871 0.033480 0.076604
vn 0.064260 0.001559 0.076604
vn 0.064260 0.001559 0.076604
vn 0.064260 0.001559 0.076604
vn -0.092159 -0.022697 0.031490
vn -0.092159 -0.022697 0.031490
vn -0.092159 -0.022697 0.031490
vn 0.038001 -0.036201 0.085120
vn 0.038001 -0.036201 0.085120
vn 0.038001 -0.036201 0.085120
vn 0.038001 -0.036201 0.085120
vn 0.000000 0.000000 0.100000
vn 0.000000 0.000000 0.100000
vn 0.000000 0.000000 0.100000
vn 0.000000 0.000000 0.100000
vn 0.000000 0.000000 0.100000
vn 0.000000 0.000000 0.100000
vn 0.000000 0.000000 0.100000
vn 0.000000 0.000000 0.100000
vn 0.000000 0.000000 0.100000
vn 0.000000 0.000000 0.100000
vn 0.000000 0.000000 0.100000
vn 0.000000 0.000000 0.100000
vn 0.000000 0.000000 0.100000
vn 0.000000 0.000000 0.100000
vn 0.000000 0.000000 0.100000
vn 0.000000 0.000000 0.100000
vn 0.000000 0.000000 0.100000
vn 0.000000 0.000000 0.100000
vn 0.056430 -0.030780 0.076604
vn 0.056430 -0.030780 0.076604
vn 0.056430 -0.030780 0.076604
vn 0.056430 -0.030780 0.076604
vn 0.056430 -0.030780 0.076604
vn 0.033480 -0.054871 0.076604
vn 0.033480 -0.054871 0.076604
vn 0.033480 -0.054871 0.076604
vn 0.051887 -0.085040 0.008716
vn 0.051887 -0.085040 0.008716
vn 0.051887 -0.085040 0.008716
vn 0.051887 -0.085040 0.008716
vn 0.002416 -0.099590 0.008716
vn 0.002416 -0.099590 0.008716
vn 0.002416 -0.099590 0.008716
vn 0.002416 -0.099590 0.008716
vn -0.047703 -0.087455 0.008716
vn -0.047703 -0.087455 0.008716
vn -0.047703 -0.087455 0.008716
vn -0.047703 -0.087455 0.008716
vn -0.085040 -0.051887 0.008716
vn -0.085040 -0.051887 0.008716
vn -0.085040 -0.051887 0.008716
vn -0.085040 -0.051887 0.008716
vn -0.099590 -0.002416 0.008716
vn -0.099590 -0.002416 0.008716
vn -0.099590 -0.002416 0.008716
vn -0.099590 -0.002416 0.008716
vn -0.087455 0.047703 0.008716
vn -0.087455 0.047703 0.008716
vn -0.087455 0.047703 0.008716
vn -0.087455 0.047703 0.008716
vn -0.051887 0.085040 0.008716
vn -0.051887 0.085040 0.008716
vn -0.051887 0.085040 0.008716
vn -0.051887 0.085040 0.008716
vn -0.002416 0.099590 0.008716
vn -0.002416 0.099590 0.008716
vn -0.002416 0.099590 0.008716
vn -0.002416 0.099590 0.008716
vn 0.047703 0.087455 0.008716
vn 0.047703 0.087455 0.008716
vn 0.047703 0.087455 0.008716
vn 0.047703 0.087455 0.008716
vn 0.085040 0.051887 0.008716
vn 0.085040 0.051887 0.008716
vn 0.085040 0.051887 0.008716
vn 0.085040 0.051887 0.008716
vn 0.099590 0.002416 0.008716
vn 0.099590 0.002416 0.008716
vn 0.099590 0.002416 0.008716
vn 0.099590 0.002416 0.008716
vn 0.087455 -0.047703 0.008716
vn 0.087455 -0.047703 0.008716
vn 0.087455 -0.047703 0.008716
vn 0.087455 -0.047703 0.008716
vn 0.070070 0.001700 -0.071325
vn 0.070070 0.001700 -0.071325
vn 0.070070 0.001700 -0.071325
vn 0.059833 0.036507 -0.071325
vn 0.059833 0.036507 -0.071325
vn 0.059833 0.036507 -0.071325
vn 0.033563 0.061533 -0.071325
vn 0.033563 0.061533 -0.071325
vn 0.033563 0.061533 -0.071325
vn -0.001700 0.070070 -0.071325
vn -0.001700 0.070070 -0.071325
vn -0.001700 0.070070 -0.071325
vn -0.036507 0.059833 -0.071325
vn -0.036507 0.059833 -0.071325
vn -0.036507 0.059833 -0.071325
vn -0.061533 0.033563 -0.071325
vn -0.061533 0.033563 -0.071325
vn -0.061533 0.033563 -0.071325
vn -0.070070 -0.001700 -0.071325
vn -0.070070 -0.001700 -0.071325
vn -0.070070 -0.001700 -0.071325
vn -0.059833 -0.036507 -0.071325
vn -0.059833 -0.036507 -0.071325
vn -0.059833 -0.036507 -0.071325
vn -0.033563 -0.061533 -0.071325
vn -0.033563 -0.061533 -0.071325
vn -0.033563 -0.061533 -0.071325
vn 0.001700 -0.070070 -0.071325
vn 0.001700 -0.070070 -0.071325
vn 0.001700 -0.070070 -0.071325
vn 0.036507 -0.059833 -0.071325
vn 0.036507 -0.059833 -0.071325
vn 0.036507 -0.059833 -0.071325
vn 0.061533 -0.033563 -0.071325
vn 0.061533 -0.033563 -0.071325
vn 0.061533 -0.033563 -0.071325
usemtl Glass_(Green)
f 1/1/1 2/2/2 4/3/3
f 4/3/3 2/2/2 3/4/4
f 2/5/5 5/6/6 3/7/7
f 7/8/8 5/9/9 6/10/10
f 6/10/10 5/9/9 2/11/11
f 6/10/10 2/11/11 1/12/12
f 1/13/13 4/14/14 8/15/15
f 9/16/16 10/17/17 12/18/18
f 12/18/18 10/17/17 11/19/19
f 10/20/20 13/21/21 11/22/22
f 4/23/23 13/24/24 8/25/25
f 8/25/25 13/24/24 10/26/26
f 8/25/25 10/26/26 9/27/27
f 9/28/28 12/29/29 14/30/30
f 15/31/31 16/32/32 18/33/33
f 18/33/33 16/32/32 17/34/34
f 16/35/35 19/36/36 17/37/37
f 12/38/38 19/39/39 14/40/40
f 14/40/40 19/39/39 16/41/41
f 14/40/40 16/41/41 15/42/42
f 15/43/43 18/44/44 20/45/45
f 21/46/46 22/47/47 24/48/48
f 24/48/48 22/47/47 23/49/49
f 22/50/50 25/51/51 23/52/52
f 18/53/53 25/54/54 20/55/55
f 20/55/55 25/54/54 22/56/56
f 20/55/55 22/56/56 21/57/57
f 21/58/58 24/59/59 26/60/60
f 27/61/61 28/62/62 30/63/63
f 30/63/63 28/62/62 29/64/64
f 28/65/65 31/66/66 29/67/67
f 24/68/68 31/69/69 26/70/70
f 26/70/70 31/69/69 28/71/71
f 26/70/70 28/71/71 27/72/72
f 27/73/73 30/74/74 32/75/75
f 33/76/76 34/77/77 35/78/78
f 36/79/79 35/80/80 7/81/81
f 7/81/81 35/80/80 34/82/82
f 5/83/83 7/84/84 3/85/85
f 3/85/85 7/84/84 34/86/86
f 3/85/85 34/86/86 11/87/87
f 11/87/87 34/86/86 17/88/88
f 11/87/87 17/88/88 12/89/89
f 12/89/89 17/88/88 19/90/90
f 33/91/91 30/92/92 34/86/86
f 34/86/86 30/92/92 29/93/93
f 34/86/86 29/93/93 17/88/88
f 17/88/88 29/93/93 23/94/94
f 17/88/88 23/94/94 18/95/95
f 18/95/95 23/94/94 25/96/96
f 31/97/97 24/98/98 29/93/93
f 29/93/93 24/98/98 23/94/94
f 13/99/99 4/100/100 11/87/87
f 11/87/87 4/100/100 3/85/85
f 36/101/101 32/102/102 35/103/103
f 35/103/103 32/102/102 33/104/104
f 33/104/104 32/102/102 30/105/105
f 36/106/106 7/107/107 6/108/108
f 36/109/109 6/110/110 38/111/111
f 38/111/111 6/110/110 37/112/112
f 6/113/113 1/114/114 37/115/115
f 37/115/115 1/114/114 39/116/116
f 1/117/117 8/118/118 39/119/119
f 39/119/119 8/118/118 40/120/120
f 8/121/121 9/122/122 40/123/123
f 40/123/123 9/122/122 41/124/124
f 9/125/125 14/126/126 41/127/127
f 41/127/127 14/126/126 42/128/128
f 14/129/129 15/130/130 42/131/131
f 42/131/131 15/130/130 43/132/132
f 15/133/133 20/134/134 43/135/135
f 43/135/135 20/134/134 44/136/136
f 20/137/137 21/138/138 44/139/139
f 44/139/139 21/138/138 45/140/140
f 21/141/141 26/142/142 45/143/143
f 45/143/143 26/142/142 46/144/144
f 26/145/145 27/146/146 46/147/147
f 46/147/147 27/146/146 47/148/148
f 27/149/149 32/150/150 47/151/151
f 47/151/151 32/150/150 48/152/152
f 32/153/153 36/154/154 48/155/155
f 48/155/155 36/154/154 38/156/156
f 48/155/157 49/157/158 47/158/159
f 47/159/160 49/160/161 46/161/162
f 46/162/163 49/163/164 45/164/165
f 45/165/166 49/166/167 44/167/168
f 44/168/169 49/169/170 43/170/171
f 43/171/172 49/172/173 42/173/174
f 42/174/175 49/175/176 41/176/177
f 41/177/178 49/178/179 40/179/180
f 40/180/181 49/181/182 39/182/183
f 39/183/184 49/184/185 37/185/186
f 37/186/187 49/187/188 38/188/189
f 38/189/190 49/190/191 48/191/192
# 49 vertices
# 191 texture params
# 192 normals
# 94 facets

# 1 groups
